<svg id="input_field" data-name="input field" xmlns="http://www.w3.org/2000/svg" width="14.45" height="14.45" viewBox="0 0 14.45 14.45">
  <g id="icon_calendar" transform="translate(-209.55 -153)">
    <path id="Path_66890" data-name="Path 66890" d="M13.246,1.355H11.289v-.9a.452.452,0,1,0-.9,0v.9H7.677v-.9a.452.452,0,0,0-.9,0v.9H4.064v-.9a.452.452,0,0,0-.9,0v.9H1.2A1.2,1.2,0,0,0,0,2.559V13.246a1.2,1.2,0,0,0,1.2,1.2H13.246a1.2,1.2,0,0,0,1.2-1.2V2.559A1.2,1.2,0,0,0,13.246,1.355Zm.3,11.891a.3.3,0,0,1-.3.3H1.2a.3.3,0,0,1-.3-.3V2.559a.3.3,0,0,1,.3-.3H3.161v.9a.452.452,0,0,0,.9,0v-.9H6.774v.9a.452.452,0,0,0,.9,0v-.9h2.709v.9a.452.452,0,1,0,.9,0v-.9h1.957a.3.3,0,0,1,.3.3Z" transform="translate(209.55 153)" fill="#333"/>
    <rect id="Rectangle_139558" data-name="Rectangle 139558" width="2" height="1" transform="translate(213 159)" fill="#333"/>
    <rect id="Rectangle_139559" data-name="Rectangle 139559" width="2" height="1" transform="translate(213 161)" fill="#333"/>
    <rect id="Rectangle_139560" data-name="Rectangle 139560" width="2" height="1" transform="translate(213 163)" fill="#333"/>
    <rect id="Rectangle_139561" data-name="Rectangle 139561" width="2" height="1" transform="translate(216 163)" fill="#333"/>
    <rect id="Rectangle_139562" data-name="Rectangle 139562" width="2" height="1" transform="translate(216 161)" fill="#333"/>
    <rect id="Rectangle_139563" data-name="Rectangle 139563" width="2" height="1" transform="translate(216 159)" fill="#333"/>
    <rect id="Rectangle_139564" data-name="Rectangle 139564" width="2" height="1" transform="translate(219 163)" fill="#333"/>
    <rect id="Rectangle_139565" data-name="Rectangle 139565" width="2" height="1" transform="translate(219 161)" fill="#333"/>
    <rect id="Rectangle_139566" data-name="Rectangle 139566" width="2" height="1" transform="translate(219 159)" fill="#333"/>
  </g>
</svg>
